<?xml version="1.0" encoding="UTF-8"?>
<!DOCTYPE xmeml>
<xmeml version="4">

  <project>
    <name>patient</name>
    <children>
      <bin>
        <name>counsellor</name>
        <children>
          <clip explodedTracks="TRUE" id="5458B63C-4592-4BF6-A314-85F1E51550AD">
            <name>00001.mp4</name>
            <duration>65954</duration>
            <rate>
              <ntsc>FALSE</ntsc>
              <timebase>30</timebase>
            </rate>
            <masterclipid>5458B63C-4592-4BF6-A314-85F1E51550AD</masterclipid>
            <ismasterclip>TRUE</ismasterclip>
            <media>
              <video>
                <track>
                  <clipitem id="5EDBD076-D10F-4988-B57D-86507189CC07">
                    <masterclipid>5458B63C-4592-4BF6-A314-85F1E51550AD</masterclipid>
                    <file id="3687F7D7-9E4D-4070-8BB7-53E13539942A">
                      <name>00001.mp4</name>
                      <rate>
                        <ntsc>FALSE</ntsc>
                        <timebase>30</timebase>
                      </rate>
                      <duration>65954</duration>
                      <media>
                        <video>
                          <samplecharacteristics>
                            <width>1440</width>
                            <height>1080</height>
                            <anamorphic>TRUE</anamorphic>
                            <pixelaspectratio>HD-(960x720)</pixelaspectratio>
                          </samplecharacteristics>
                          <duration>65954</duration>
                        </video>
                        <audio>
                          <channelcount>1</channelcount>
                          <samplecharacteristics>
                            <depth>16</depth>
                            <samplerate>48000</samplerate>
                          </samplecharacteristics>
                          <layout>mono</layout>
                          <audiochannel>
                            <channellabel>discrete</channellabel>
                            <sourcechannel>1</sourcechannel>
                          </audiochannel>
                        </audio>
                      </media>
                      <pathurl>file://localhost/H:/motivated/media/counsellor/00001.mp4</pathurl>
                    </file>
                    <link>
                      <mediatype>video</mediatype>
                      <trackindex>1</trackindex>
                      <clipindex>1</clipindex>
                      <groupindex>1</groupindex>
                      <linkclipref>5EDBD076-D10F-4988-B57D-86507189CC07</linkclipref>
                    </link>
                    <link>
                      <mediatype>audio</mediatype>
                      <trackindex>1</trackindex>
                      <clipindex>1</clipindex>
                      <groupindex>1</groupindex>
                      <linkclipref>27B7D883-A280-4C60-AA38-6E9180F273ED</linkclipref>
                    </link>
                  </clipitem>
                  <enabled>TRUE</enabled>
                  <locked>FALSE</locked>
                </track>
              </video>
              <audio>
                <track>
                  <clipitem id="27B7D883-A280-4C60-AA38-6E9180F273ED">
                    <masterclipid>5458B63C-4592-4BF6-A314-85F1E51550AD</masterclipid>
                    <file id="3687F7D7-9E4D-4070-8BB7-53E13539942A">
                      <name>00001.mp4</name>
                      <rate>
                        <ntsc>FALSE</ntsc>
                        <timebase>30</timebase>
                      </rate>
                      <duration>65954</duration>
                      <media>
                        <video>
                          <samplecharacteristics>
                            <width>1440</width>
                            <height>1080</height>
                            <anamorphic>TRUE</anamorphic>
                            <pixelaspectratio>HD-(960x720)</pixelaspectratio>
                          </samplecharacteristics>
                          <duration>65954</duration>
                        </video>
                        <audio>
                          <channelcount>1</channelcount>
                          <samplecharacteristics>
                            <depth>16</depth>
                            <samplerate>48000</samplerate>
                          </samplecharacteristics>
                          <layout>mono</layout>
                          <audiochannel>
                            <channellabel>discrete</channellabel>
                            <sourcechannel>1</sourcechannel>
                          </audiochannel>
                        </audio>
                      </media>
                      <pathurl>file://localhost/H:/motivated/media/counsellor/00001.mp4</pathurl>
                    </file>
                    <link>
                      <mediatype>video</mediatype>
                      <trackindex>1</trackindex>
                      <clipindex>1</clipindex>
                      <groupindex>1</groupindex>
                      <linkclipref>5EDBD076-D10F-4988-B57D-86507189CC07</linkclipref>
                    </link>
                    <link>
                      <mediatype>audio</mediatype>
                      <trackindex>1</trackindex>
                      <clipindex>1</clipindex>
                      <groupindex>1</groupindex>
                      <linkclipref>27B7D883-A280-4C60-AA38-6E9180F273ED</linkclipref>
                    </link>
                  </clipitem>
                  <enabled>TRUE</enabled>
                  <locked>FALSE</locked>
                </track>
              </audio>
            </media>
          </clip>
          <clip explodedTracks="TRUE" id="AAE07D41-DCA9-48DA-9952-0D28EF85C7CE">
            <name>00000.mp4</name>
            <duration>92507</duration>
            <rate>
              <ntsc>FALSE</ntsc>
              <timebase>30</timebase>
            </rate>
            <masterclipid>AAE07D41-DCA9-48DA-9952-0D28EF85C7CE</masterclipid>
            <ismasterclip>TRUE</ismasterclip>
            <media>
              <video>
                <track>
                  <clipitem id="6A38CC4E-6F72-4C0B-B4AB-5508DFFD9096">
                    <masterclipid>AAE07D41-DCA9-48DA-9952-0D28EF85C7CE</masterclipid>
                    <file id="43EC00D2-2925-4E29-ABE2-1122BC2BFBEE">
                      <name>00000.mp4</name>
                      <rate>
                        <ntsc>FALSE</ntsc>
                        <timebase>30</timebase>
                      </rate>
                      <duration>92507</duration>
                      <media>
                        <video>
                          <samplecharacteristics>
                            <width>1440</width>
                            <height>1080</height>
                            <anamorphic>TRUE</anamorphic>
                            <pixelaspectratio>HD-(960x720)</pixelaspectratio>
                          </samplecharacteristics>
                          <duration>92507</duration>
                        </video>
                        <audio>
                          <channelcount>1</channelcount>
                          <samplecharacteristics>
                            <depth>16</depth>
                            <samplerate>48000</samplerate>
                          </samplecharacteristics>
                          <layout>mono</layout>
                          <audiochannel>
                            <channellabel>discrete</channellabel>
                            <sourcechannel>1</sourcechannel>
                          </audiochannel>
                        </audio>
                      </media>
                      <pathurl>file://localhost/H:/motivated/media/counsellor/00000.mp4</pathurl>
                    </file>
                    <link>
                      <mediatype>video</mediatype>
                      <trackindex>1</trackindex>
                      <clipindex>1</clipindex>
                      <groupindex>1</groupindex>
                      <linkclipref>6A38CC4E-6F72-4C0B-B4AB-5508DFFD9096</linkclipref>
                    </link>
                    <link>
                      <mediatype>audio</mediatype>
                      <trackindex>1</trackindex>
                      <clipindex>1</clipindex>
                      <groupindex>1</groupindex>
                      <linkclipref>6C0B4F21-9C35-4956-BCD5-1C54F82E246B</linkclipref>
                    </link>
                  </clipitem>
                  <enabled>TRUE</enabled>
                  <locked>FALSE</locked>
                </track>
              </video>
              <audio>
                <track>
                  <clipitem id="6C0B4F21-9C35-4956-BCD5-1C54F82E246B">
                    <masterclipid>AAE07D41-DCA9-48DA-9952-0D28EF85C7CE</masterclipid>
                    <file id="43EC00D2-2925-4E29-ABE2-1122BC2BFBEE">
                      <name>00000.mp4</name>
                      <rate>
                        <ntsc>FALSE</ntsc>
                        <timebase>30</timebase>
                      </rate>
                      <duration>92507</duration>
                      <media>
                        <video>
                          <samplecharacteristics>
                            <width>1440</width>
                            <height>1080</height>
                            <anamorphic>TRUE</anamorphic>
                            <pixelaspectratio>HD-(960x720)</pixelaspectratio>
                          </samplecharacteristics>
                          <duration>92507</duration>
                        </video>
                        <audio>
                          <channelcount>1</channelcount>
                          <samplecharacteristics>
                            <depth>16</depth>
                            <samplerate>48000</samplerate>
                          </samplecharacteristics>
                          <layout>mono</layout>
                          <audiochannel>
                            <channellabel>discrete</channellabel>
                            <sourcechannel>1</sourcechannel>
                          </audiochannel>
                        </audio>
                      </media>
                      <pathurl>file://localhost/H:/motivated/media/counsellor/00000.mp4</pathurl>
                    </file>
                    <link>
                      <mediatype>video</mediatype>
                      <trackindex>1</trackindex>
                      <clipindex>1</clipindex>
                      <groupindex>1</groupindex>
                      <linkclipref>6A38CC4E-6F72-4C0B-B4AB-5508DFFD9096</linkclipref>
                    </link>
                    <link>
                      <mediatype>audio</mediatype>
                      <trackindex>1</trackindex>
                      <clipindex>1</clipindex>
                      <groupindex>1</groupindex>
                      <linkclipref>6C0B4F21-9C35-4956-BCD5-1C54F82E246B</linkclipref>
                    </link>
                  </clipitem>
                  <enabled>TRUE</enabled>
                  <locked>FALSE</locked>
                </track>
              </audio>
            </media>
          </clip>
        </children>
      </bin>
      <bin>
        <name>patient</name>
        <children>
          <clip explodedTracks="TRUE" id="3A485E89-FC8D-4438-B0CB-70DDA7D8CA3E">
            <name>00002.mp4</name>
            <duration>50249</duration>
            <rate>
              <ntsc>FALSE</ntsc>
              <timebase>30</timebase>
            </rate>
            <masterclipid>3A485E89-FC8D-4438-B0CB-70DDA7D8CA3E</masterclipid>
            <ismasterclip>TRUE</ismasterclip>
            <media>
              <video>
                <track>
                  <clipitem id="F901A868-4BA6-4677-A5E6-1F5D1EADBD8D">
                    <masterclipid>3A485E89-FC8D-4438-B0CB-70DDA7D8CA3E</masterclipid>
                    <file id="E3C89026-DF3E-4E4E-9F2D-0674667AE124">
                      <name>00002.mp4</name>
                      <rate>
                        <ntsc>FALSE</ntsc>
                        <timebase>30</timebase>
                      </rate>
                      <duration>50249</duration>
                      <media>
                        <video>
                          <samplecharacteristics>
                            <width>1440</width>
                            <height>1080</height>
                            <anamorphic>TRUE</anamorphic>
                            <pixelaspectratio>HD-(960x720)</pixelaspectratio>
                          </samplecharacteristics>
                          <duration>50249</duration>
                        </video>
                        <audio>
                          <channelcount>1</channelcount>
                          <samplecharacteristics>
                            <depth>16</depth>
                            <samplerate>48000</samplerate>
                          </samplecharacteristics>
                          <layout>mono</layout>
                          <audiochannel>
                            <channellabel>discrete</channellabel>
                            <sourcechannel>1</sourcechannel>
                          </audiochannel>
                        </audio>
                      </media>
                      <pathurl>file://localhost/H:/motivated/media/patient/00002.mp4</pathurl>
                    </file>
                    <link>
                      <mediatype>video</mediatype>
                      <trackindex>1</trackindex>
                      <clipindex>1</clipindex>
                      <groupindex>1</groupindex>
                      <linkclipref>F901A868-4BA6-4677-A5E6-1F5D1EADBD8D</linkclipref>
                    </link>
                    <link>
                      <mediatype>audio</mediatype>
                      <trackindex>1</trackindex>
                      <clipindex>1</clipindex>
                      <groupindex>1</groupindex>
                      <linkclipref>16A0E516-C6DE-46BB-A028-75775809D04E</linkclipref>
                    </link>
                  </clipitem>
                  <enabled>TRUE</enabled>
                  <locked>FALSE</locked>
                </track>
              </video>
              <audio>
                <track>
                  <clipitem id="16A0E516-C6DE-46BB-A028-75775809D04E">
                    <masterclipid>3A485E89-FC8D-4438-B0CB-70DDA7D8CA3E</masterclipid>
                    <file id="E3C89026-DF3E-4E4E-9F2D-0674667AE124">
                      <name>00002.mp4</name>
                      <rate>
                        <ntsc>FALSE</ntsc>
                        <timebase>30</timebase>
                      </rate>
                      <duration>50249</duration>
                      <media>
                        <video>
                          <samplecharacteristics>
                            <width>1440</width>
                            <height>1080</height>
                            <anamorphic>TRUE</anamorphic>
                            <pixelaspectratio>HD-(960x720)</pixelaspectratio>
                          </samplecharacteristics>
                          <duration>50249</duration>
                        </video>
                        <audio>
                          <channelcount>1</channelcount>
                          <samplecharacteristics>
                            <depth>16</depth>
                            <samplerate>48000</samplerate>
                          </samplecharacteristics>
                          <layout>mono</layout>
                          <audiochannel>
                            <channellabel>discrete</channellabel>
                            <sourcechannel>1</sourcechannel>
                          </audiochannel>
                        </audio>
                      </media>
                      <pathurl>file://localhost/H:/motivated/media/patient/00002.mp4</pathurl>
                    </file>
                    <link>
                      <mediatype>video</mediatype>
                      <trackindex>1</trackindex>
                      <clipindex>1</clipindex>
                      <groupindex>1</groupindex>
                      <linkclipref>F901A868-4BA6-4677-A5E6-1F5D1EADBD8D</linkclipref>
                    </link>
                    <link>
                      <mediatype>audio</mediatype>
                      <trackindex>1</trackindex>
                      <clipindex>1</clipindex>
                      <groupindex>1</groupindex>
                      <linkclipref>16A0E516-C6DE-46BB-A028-75775809D04E</linkclipref>
                    </link>
                  </clipitem>
                  <enabled>TRUE</enabled>
                  <locked>FALSE</locked>
                </track>
              </audio>
            </media>
          </clip>
          <clip explodedTracks="TRUE" id="37FB9CCF-536B-4A98-AF82-4A097E544E4E">
            <name>00001.mp4</name>
            <duration>53716</duration>
            <rate>
              <ntsc>FALSE</ntsc>
              <timebase>30</timebase>
            </rate>
            <masterclipid>37FB9CCF-536B-4A98-AF82-4A097E544E4E</masterclipid>
            <ismasterclip>TRUE</ismasterclip>
            <media>
              <video>
                <track>
                  <clipitem id="E8C994F5-C183-4EAB-9953-041DAF6B3B77">
                    <masterclipid>37FB9CCF-536B-4A98-AF82-4A097E544E4E</masterclipid>
                    <file id="E0229A40-1232-4726-8D6B-835741527CE2">
                      <name>00001.mp4</name>
                      <rate>
                        <ntsc>FALSE</ntsc>
                        <timebase>30</timebase>
                      </rate>
                      <duration>53716</duration>
                      <media>
                        <video>
                          <samplecharacteristics>
                            <width>1440</width>
                            <height>1080</height>
                            <anamorphic>TRUE</anamorphic>
                            <pixelaspectratio>HD-(960x720)</pixelaspectratio>
                          </samplecharacteristics>
                          <duration>53716</duration>
                        </video>
                        <audio>
                          <channelcount>1</channelcount>
                          <samplecharacteristics>
                            <depth>16</depth>
                            <samplerate>48000</samplerate>
                          </samplecharacteristics>
                          <layout>mono</layout>
                          <audiochannel>
                            <channellabel>discrete</channellabel>
                            <sourcechannel>1</sourcechannel>
                          </audiochannel>
                        </audio>
                      </media>
                      <pathurl>file://localhost/H:/motivated/media/patient/00001.mp4</pathurl>
                    </file>
                    <link>
                      <mediatype>video</mediatype>
                      <trackindex>1</trackindex>
                      <clipindex>1</clipindex>
                      <groupindex>1</groupindex>
                      <linkclipref>E8C994F5-C183-4EAB-9953-041DAF6B3B77</linkclipref>
                    </link>
                    <link>
                      <mediatype>audio</mediatype>
                      <trackindex>1</trackindex>
                      <clipindex>1</clipindex>
                      <groupindex>1</groupindex>
                      <linkclipref>78CCA736-8E8F-4E6B-AEB7-B3587AFA32C2</linkclipref>
                    </link>
                  </clipitem>
                  <enabled>TRUE</enabled>
                  <locked>FALSE</locked>
                </track>
              </video>
              <audio>
                <track>
                  <clipitem id="78CCA736-8E8F-4E6B-AEB7-B3587AFA32C2">
                    <masterclipid>37FB9CCF-536B-4A98-AF82-4A097E544E4E</masterclipid>
                    <file id="E0229A40-1232-4726-8D6B-835741527CE2">
                      <name>00001.mp4</name>
                      <rate>
                        <ntsc>FALSE</ntsc>
                        <timebase>30</timebase>
                      </rate>
                      <duration>53716</duration>
                      <media>
                        <video>
                          <samplecharacteristics>
                            <width>1440</width>
                            <height>1080</height>
                            <anamorphic>TRUE</anamorphic>
                            <pixelaspectratio>HD-(960x720)</pixelaspectratio>
                          </samplecharacteristics>
                          <duration>53716</duration>
                        </video>
                        <audio>
                          <channelcount>1</channelcount>
                          <samplecharacteristics>
                            <depth>16</depth>
                            <samplerate>48000</samplerate>
                          </samplecharacteristics>
                          <layout>mono</layout>
                          <audiochannel>
                            <channellabel>discrete</channellabel>
                            <sourcechannel>1</sourcechannel>
                          </audiochannel>
                        </audio>
                      </media>
                      <pathurl>file://localhost/H:/motivated/media/patient/00001.mp4</pathurl>
                    </file>
                    <link>
                      <mediatype>video</mediatype>
                      <trackindex>1</trackindex>
                      <clipindex>1</clipindex>
                      <groupindex>1</groupindex>
                      <linkclipref>E8C994F5-C183-4EAB-9953-041DAF6B3B77</linkclipref>
                    </link>
                    <link>
                      <mediatype>audio</mediatype>
                      <trackindex>1</trackindex>
                      <clipindex>1</clipindex>
                      <groupindex>1</groupindex>
                      <linkclipref>78CCA736-8E8F-4E6B-AEB7-B3587AFA32C2</linkclipref>
                    </link>
                  </clipitem>
                  <enabled>TRUE</enabled>
                  <locked>FALSE</locked>
                </track>
              </audio>
            </media>
          </clip>
          <clip explodedTracks="TRUE" id="0CDC6AE6-1091-4638-985C-34B76127B736">
            <name>00000.mp4</name>
            <duration>53739</duration>
            <rate>
              <ntsc>FALSE</ntsc>
              <timebase>30</timebase>
            </rate>
            <masterclipid>0CDC6AE6-1091-4638-985C-34B76127B736</masterclipid>
            <ismasterclip>TRUE</ismasterclip>
            <media>
              <video>
                <track>
                  <clipitem id="4F3F1A45-D7D2-43CE-807D-486252D2E5EC">
                    <masterclipid>0CDC6AE6-1091-4638-985C-34B76127B736</masterclipid>
                    <file id="F86CC6D2-5BA7-430B-99BB-AFCB38CD8EB1">
                      <name>00000.mp4</name>
                      <rate>
                        <ntsc>FALSE</ntsc>
                        <timebase>30</timebase>
                      </rate>
                      <duration>53739</duration>
                      <media>
                        <video>
                          <samplecharacteristics>
                            <width>1440</width>
                            <height>1080</height>
                            <anamorphic>TRUE</anamorphic>
                            <pixelaspectratio>HD-(960x720)</pixelaspectratio>
                          </samplecharacteristics>
                          <duration>53739</duration>
                        </video>
                        <audio>
                          <channelcount>1</channelcount>
                          <samplecharacteristics>
                            <depth>16</depth>
                            <samplerate>48000</samplerate>
                          </samplecharacteristics>
                          <layout>mono</layout>
                          <audiochannel>
                            <channellabel>discrete</channellabel>
                            <sourcechannel>1</sourcechannel>
                          </audiochannel>
                        </audio>
                      </media>
                      <pathurl>file://localhost/H:/motivated/media/patient/00000.mp4</pathurl>
                    </file>
                    <link>
                      <mediatype>video</mediatype>
                      <trackindex>1</trackindex>
                      <clipindex>1</clipindex>
                      <groupindex>1</groupindex>
                      <linkclipref>4F3F1A45-D7D2-43CE-807D-486252D2E5EC</linkclipref>
                    </link>
                    <link>
                      <mediatype>audio</mediatype>
                      <trackindex>1</trackindex>
                      <clipindex>1</clipindex>
                      <groupindex>1</groupindex>
                      <linkclipref>13310022-324E-46B1-9BFE-39F48C524A1D</linkclipref>
                    </link>
                  </clipitem>
                  <enabled>TRUE</enabled>
                  <locked>FALSE</locked>
                </track>
              </video>
              <audio>
                <track>
                  <clipitem id="13310022-324E-46B1-9BFE-39F48C524A1D">
                    <masterclipid>0CDC6AE6-1091-4638-985C-34B76127B736</masterclipid>
                    <file id="F86CC6D2-5BA7-430B-99BB-AFCB38CD8EB1">
                      <name>00000.mp4</name>
                      <rate>
                        <ntsc>FALSE</ntsc>
                        <timebase>30</timebase>
                      </rate>
                      <duration>53739</duration>
                      <media>
                        <video>
                          <samplecharacteristics>
                            <width>1440</width>
                            <height>1080</height>
                            <anamorphic>TRUE</anamorphic>
                            <pixelaspectratio>HD-(960x720)</pixelaspectratio>
                          </samplecharacteristics>
                          <duration>53739</duration>
                        </video>
                        <audio>
                          <channelcount>1</channelcount>
                          <samplecharacteristics>
                            <depth>16</depth>
                            <samplerate>48000</samplerate>
                          </samplecharacteristics>
                          <layout>mono</layout>
                          <audiochannel>
                            <channellabel>discrete</channellabel>
                            <sourcechannel>1</sourcechannel>
                          </audiochannel>
                        </audio>
                      </media>
                      <pathurl>file://localhost/H:/motivated/media/patient/00000.mp4</pathurl>
                    </file>
                    <link>
                      <mediatype>video</mediatype>
                      <trackindex>1</trackindex>
                      <clipindex>1</clipindex>
                      <groupindex>1</groupindex>
                      <linkclipref>4F3F1A45-D7D2-43CE-807D-486252D2E5EC</linkclipref>
                    </link>
                    <link>
                      <mediatype>audio</mediatype>
                      <trackindex>1</trackindex>
                      <clipindex>1</clipindex>
                      <groupindex>1</groupindex>
                      <linkclipref>13310022-324E-46B1-9BFE-39F48C524A1D</linkclipref>
                    </link>
                  </clipitem>
                  <enabled>TRUE</enabled>
                  <locked>FALSE</locked>
                </track>
              </audio>
            </media>
          </clip>
        </children>
      </bin>
      <bin>
        <name>overview</name>
        <children>
          <clip explodedTracks="TRUE" id="E64FCD8E-6DD9-44A7-B4EF-10EB3E07B30D">
            <name>00001.mp4</name>
            <duration>65655</duration>
            <rate>
              <ntsc>FALSE</ntsc>
              <timebase>30</timebase>
            </rate>
            <masterclipid>E64FCD8E-6DD9-44A7-B4EF-10EB3E07B30D</masterclipid>
            <ismasterclip>TRUE</ismasterclip>
            <media>
              <video>
                <track>
                  <clipitem id="B4A97DA4-44C4-4275-BBF6-E38AE2C12515">
                    <masterclipid>E64FCD8E-6DD9-44A7-B4EF-10EB3E07B30D</masterclipid>
                    <file id="8C68F26D-8B07-4B0A-8B88-FB65D352ADE1">
                      <name>00001.mp4</name>
                      <rate>
                        <ntsc>FALSE</ntsc>
                        <timebase>30</timebase>
                      </rate>
                      <duration>65655</duration>
                      <media>
                        <video>
                          <samplecharacteristics>
                            <width>1440</width>
                            <height>1080</height>
                            <anamorphic>TRUE</anamorphic>
                            <pixelaspectratio>HD-(960x720)</pixelaspectratio>
                          </samplecharacteristics>
                          <duration>65655</duration>
                        </video>
                        <audio>
                          <channelcount>1</channelcount>
                          <samplecharacteristics>
                            <depth>16</depth>
                            <samplerate>48000</samplerate>
                          </samplecharacteristics>
                          <layout>mono</layout>
                          <audiochannel>
                            <channellabel>discrete</channellabel>
                            <sourcechannel>1</sourcechannel>
                          </audiochannel>
                        </audio>
                      </media>
                      <pathurl>file://localhost/H:/motivated/media/overview/00001.mp4</pathurl>
                    </file>
                    <link>
                      <mediatype>video</mediatype>
                      <trackindex>1</trackindex>
                      <clipindex>1</clipindex>
                      <groupindex>1</groupindex>
                      <linkclipref>B4A97DA4-44C4-4275-BBF6-E38AE2C12515</linkclipref>
                    </link>
                    <link>
                      <mediatype>audio</mediatype>
                      <trackindex>1</trackindex>
                      <clipindex>1</clipindex>
                      <groupindex>1</groupindex>
                      <linkclipref>2CF4B9C0-5611-4722-AC43-9F4271CF7063</linkclipref>
                    </link>
                  </clipitem>
                  <enabled>TRUE</enabled>
                  <locked>FALSE</locked>
                </track>
              </video>
              <audio>
                <track>
                  <clipitem id="2CF4B9C0-5611-4722-AC43-9F4271CF7063">
                    <masterclipid>E64FCD8E-6DD9-44A7-B4EF-10EB3E07B30D</masterclipid>
                    <file id="8C68F26D-8B07-4B0A-8B88-FB65D352ADE1">
                      <name>00001.mp4</name>
                      <rate>
                        <ntsc>FALSE</ntsc>
                        <timebase>30</timebase>
                      </rate>
                      <duration>65655</duration>
                      <media>
                        <video>
                          <samplecharacteristics>
                            <width>1440</width>
                            <height>1080</height>
                            <anamorphic>TRUE</anamorphic>
                            <pixelaspectratio>HD-(960x720)</pixelaspectratio>
                          </samplecharacteristics>
                          <duration>65655</duration>
                        </video>
                        <audio>
                          <channelcount>1</channelcount>
                          <samplecharacteristics>
                            <depth>16</depth>
                            <samplerate>48000</samplerate>
                          </samplecharacteristics>
                          <layout>mono</layout>
                          <audiochannel>
                            <channellabel>discrete</channellabel>
                            <sourcechannel>1</sourcechannel>
                          </audiochannel>
                        </audio>
                      </media>
                      <pathurl>file://localhost/H:/motivated/media/overview/00001.mp4</pathurl>
                    </file>
                    <link>
                      <mediatype>video</mediatype>
                      <trackindex>1</trackindex>
                      <clipindex>1</clipindex>
                      <groupindex>1</groupindex>
                      <linkclipref>B4A97DA4-44C4-4275-BBF6-E38AE2C12515</linkclipref>
                    </link>
                    <link>
                      <mediatype>audio</mediatype>
                      <trackindex>1</trackindex>
                      <clipindex>1</clipindex>
                      <groupindex>1</groupindex>
                      <linkclipref>2CF4B9C0-5611-4722-AC43-9F4271CF7063</linkclipref>
                    </link>
                  </clipitem>
                  <enabled>TRUE</enabled>
                  <locked>FALSE</locked>
                </track>
              </audio>
            </media>
          </clip>
          <clip explodedTracks="TRUE" id="F52B851A-E885-4270-99FD-B8CE248F6A49">
            <name>00000.mp4</name>
            <duration>92613</duration>
            <rate>
              <ntsc>FALSE</ntsc>
              <timebase>30</timebase>
            </rate>
            <masterclipid>F52B851A-E885-4270-99FD-B8CE248F6A49</masterclipid>
            <ismasterclip>TRUE</ismasterclip>
            <media>
              <video>
                <track>
                  <clipitem id="85A911A5-1B41-4FAA-AC4B-9DEA88A1B615">
                    <masterclipid>F52B851A-E885-4270-99FD-B8CE248F6A49</masterclipid>
                    <file id="2DD01D76-0323-414D-9277-83CFC3622C71">
                      <name>00000.mp4</name>
                      <rate>
                        <ntsc>FALSE</ntsc>
                        <timebase>30</timebase>
                      </rate>
                      <duration>92613</duration>
                      <media>
                        <video>
                          <samplecharacteristics>
                            <width>1440</width>
                            <height>1080</height>
                            <anamorphic>TRUE</anamorphic>
                            <pixelaspectratio>HD-(960x720)</pixelaspectratio>
                          </samplecharacteristics>
                          <duration>92613</duration>
                        </video>
                        <audio>
                          <channelcount>1</channelcount>
                          <samplecharacteristics>
                            <depth>16</depth>
                            <samplerate>48000</samplerate>
                          </samplecharacteristics>
                          <layout>mono</layout>
                          <audiochannel>
                            <channellabel>discrete</channellabel>
                            <sourcechannel>1</sourcechannel>
                          </audiochannel>
                        </audio>
                      </media>
                      <pathurl>file://localhost/H:/motivated/media/overview/00000.mp4</pathurl>
                    </file>
                    <link>
                      <mediatype>video</mediatype>
                      <trackindex>1</trackindex>
                      <clipindex>1</clipindex>
                      <groupindex>1</groupindex>
                      <linkclipref>85A911A5-1B41-4FAA-AC4B-9DEA88A1B615</linkclipref>
                    </link>
                    <link>
                      <mediatype>audio</mediatype>
                      <trackindex>1</trackindex>
                      <clipindex>1</clipindex>
                      <groupindex>1</groupindex>
                      <linkclipref>83EEAF41-C7CD-401B-8F97-C4BD418BF3D1</linkclipref>
                    </link>
                  </clipitem>
                  <enabled>TRUE</enabled>
                  <locked>FALSE</locked>
                </track>
              </video>
              <audio>
                <track>
                  <clipitem id="83EEAF41-C7CD-401B-8F97-C4BD418BF3D1">
                    <masterclipid>F52B851A-E885-4270-99FD-B8CE248F6A49</masterclipid>
                    <file id="2DD01D76-0323-414D-9277-83CFC3622C71">
                      <name>00000.mp4</name>
                      <rate>
                        <ntsc>FALSE</ntsc>
                        <timebase>30</timebase>
                      </rate>
                      <duration>92613</duration>
                      <media>
                        <video>
                          <samplecharacteristics>
                            <width>1440</width>
                            <height>1080</height>
                            <anamorphic>TRUE</anamorphic>
                            <pixelaspectratio>HD-(960x720)</pixelaspectratio>
                          </samplecharacteristics>
                          <duration>92613</duration>
                        </video>
                        <audio>
                          <channelcount>1</channelcount>
                          <samplecharacteristics>
                            <depth>16</depth>
                            <samplerate>48000</samplerate>
                          </samplecharacteristics>
                          <layout>mono</layout>
                          <audiochannel>
                            <channellabel>discrete</channellabel>
                            <sourcechannel>1</sourcechannel>
                          </audiochannel>
                        </audio>
                      </media>
                      <pathurl>file://localhost/H:/motivated/media/overview/00000.mp4</pathurl>
                    </file>
                    <link>
                      <mediatype>video</mediatype>
                      <trackindex>1</trackindex>
                      <clipindex>1</clipindex>
                      <groupindex>1</groupindex>
                      <linkclipref>85A911A5-1B41-4FAA-AC4B-9DEA88A1B615</linkclipref>
                    </link>
                    <link>
                      <mediatype>audio</mediatype>
                      <trackindex>1</trackindex>
                      <clipindex>1</clipindex>
                      <groupindex>1</groupindex>
                      <linkclipref>83EEAF41-C7CD-401B-8F97-C4BD418BF3D1</linkclipref>
                    </link>
                  </clipitem>
                  <enabled>TRUE</enabled>
                  <locked>FALSE</locked>
                </track>
              </audio>
            </media>
          </clip>
        </children>
      </bin>
      <bin>
        <name>Audio Recorder 1</name>
        <children>
          <clip explodedTracks="TRUE" id="7729F628-AA9A-40DD-9FF6-FD7A76839071">
            <name>mixed.wav</name>
            <duration>157626</duration>
            <rate>
              <ntsc>FALSE</ntsc>
              <timebase>30</timebase>
            </rate>
            <masterclipid>7729F628-AA9A-40DD-9FF6-FD7A76839071</masterclipid>
            <ismasterclip>TRUE</ismasterclip>
            <media>
              <audio>
                <track>
                  <clipitem id="28F1C565-368F-447A-8794-E6738CE84463">
                    <masterclipid>7729F628-AA9A-40DD-9FF6-FD7A76839071</masterclipid>
                    <file id="87259784-C221-4EAD-AC01-FF24FF0EEB43">
                      <name>mixed.wav</name>
                      <rate>
                        <ntsc>FALSE</ntsc>
                        <timebase>30</timebase>
                      </rate>
                      <duration>157626</duration>
                      <media>
                        <audio>
                          <channelcount>1</channelcount>
                          <samplecharacteristics>
                            <depth>16</depth>
                            <samplerate>44100</samplerate>
                          </samplecharacteristics>
                          <layout>mono</layout>
                          <audiochannel>
                            <channellabel>discrete</channellabel>
                            <sourcechannel>1</sourcechannel>
                          </audiochannel>
                        </audio>
                      </media>
                      <pathurl>file://localhost/H:/motivated/media/mixed.wav</pathurl>
                    </file>
                  </clipitem>
                  <enabled>TRUE</enabled>
                  <locked>FALSE</locked>
                </track>
              </audio>
            </media>
          </clip>
        </children>
      </bin>
      <bin>
        <name>Audio Recorder 2</name>
        <children>
          <clip explodedTracks="TRUE" id="E1720DF2-D817-4B31-B4EB-85C95B7EB43C">
            <name>counsellor.wav</name>
            <duration>157626</duration>
            <rate>
              <ntsc>FALSE</ntsc>
              <timebase>30</timebase>
            </rate>
            <masterclipid>E1720DF2-D817-4B31-B4EB-85C95B7EB43C</masterclipid>
            <ismasterclip>TRUE</ismasterclip>
            <media>
              <audio>
                <track>
                  <clipitem id="0A1A6693-85BB-4AFC-9030-2B1FABBF1C3B">
                    <masterclipid>E1720DF2-D817-4B31-B4EB-85C95B7EB43C</masterclipid>
                    <file id="BE99E36F-00B6-4364-83D6-5F86BFD4A54D">
                      <name>counsellor.wav</name>
                      <rate>
                        <ntsc>FALSE</ntsc>
                        <timebase>30</timebase>
                      </rate>
                      <duration>157626</duration>
                      <media>
                        <audio>
                          <channelcount>1</channelcount>
                          <samplecharacteristics>
                            <depth>16</depth>
                            <samplerate>44100</samplerate>
                          </samplecharacteristics>
                          <layout>mono</layout>
                          <audiochannel>
                            <channellabel>discrete</channellabel>
                            <sourcechannel>1</sourcechannel>
                          </audiochannel>
                        </audio>
                      </media>
                      <pathurl>file://localhost/H:/motivated/media/counsellor.wav</pathurl>
                    </file>
                  </clipitem>
                  <enabled>TRUE</enabled>
                  <locked>FALSE</locked>
                </track>
              </audio>
            </media>
          </clip>
        </children>
      </bin>
      <bin>
        <name>Audio Recorder 3</name>
        <children>
          <clip explodedTracks="TRUE" id="1E6517A4-32A2-4344-8834-45C4367A1520">
            <name>patient.wav</name>
            <duration>157626</duration>
            <rate>
              <ntsc>FALSE</ntsc>
              <timebase>30</timebase>
            </rate>
            <masterclipid>1E6517A4-32A2-4344-8834-45C4367A1520</masterclipid>
            <ismasterclip>TRUE</ismasterclip>
            <media>
              <audio>
                <track>
                  <clipitem id="D1AD9AF1-2E42-4E95-936F-6F1D48665C0B">
                    <masterclipid>1E6517A4-32A2-4344-8834-45C4367A1520</masterclipid>
                    <file id="BAFFA325-952A-4D3B-B75D-52CD62C591DC">
                      <name>patient.wav</name>
                      <rate>
                        <ntsc>FALSE</ntsc>
                        <timebase>30</timebase>
                      </rate>
                      <duration>157626</duration>
                      <media>
                        <audio>
                          <channelcount>1</channelcount>
                          <samplecharacteristics>
                            <depth>16</depth>
                            <samplerate>44100</samplerate>
                          </samplecharacteristics>
                          <layout>mono</layout>
                          <audiochannel>
                            <channellabel>discrete</channellabel>
                            <sourcechannel>1</sourcechannel>
                          </audiochannel>
                        </audio>
                      </media>
                      <pathurl>file://localhost/H:/motivated/media/patient.wav</pathurl>
                    </file>
                  </clipitem>
                  <enabled>TRUE</enabled>
                  <locked>FALSE</locked>
                </track>
              </audio>
            </media>
          </clip>
        </children>
      </bin>
      <sequence id="105198bf-2d30-408a-9f3d-0ec96388d6af">
        <name>Synced Sequence</name>
        <duration>158644</duration>
        <rate>
          <ntsc>FALSE</ntsc>
          <timebase>30</timebase>
        </rate>
        <marker>
          <name>pluraleyes 000</name>
          <in>0</in>
          <out>-1</out>
        </marker>
        <media>
          <video>
            <track>
              <clipitem id="clip2" premiereChannelType="mono">
                <name>00000.mp4</name>
                <duration>92507</duration>
                <in>0</in>
                <out>92507</out>
                <start>174</start>
                <end>92681</end>
                <masterclipid>AAE07D41-DCA9-48DA-9952-0D28EF85C7CE</masterclipid>
                <file id="43EC00D2-2925-4E29-ABE2-1122BC2BFBEE">
                  <name>00000.mp4</name>
                  <rate>
                    <ntsc>FALSE</ntsc>
                    <timebase>30</timebase>
                  </rate>
                  <duration>92507</duration>
                  <media>
                    <video>
                      <samplecharacteristics>
                        <width>1440</width>
                        <height>1080</height>
                        <anamorphic>TRUE</anamorphic>
                        <pixelaspectratio>HD-(960x720)</pixelaspectratio>
                      </samplecharacteristics>
                      <duration>92507</duration>
                    </video>
                    <audio>
                      <channelcount>1</channelcount>
                      <samplecharacteristics>
                        <depth>16</depth>
                        <samplerate>48000</samplerate>
                      </samplecharacteristics>
                      <layout>mono</layout>
                      <audiochannel>
                        <channellabel>discrete</channellabel>
                        <sourcechannel>1</sourcechannel>
                      </audiochannel>
                    </audio>
                  </media>
                  <pathurl>file://localhost/H:/motivated/media/counsellor/00000.mp4</pathurl>
                </file>
                <sourcetrack>
                  <mediatype>video</mediatype>
                  <trackindex>1</trackindex>
                </sourcetrack>
                <link>
                  <mediatype>video</mediatype>
                  <trackindex>1</trackindex>
                  <clipindex>1</clipindex>
                  <groupindex>1</groupindex>
                  <linkclipref>clip2</linkclipref>
                </link>
                <link>
                  <mediatype>audio</mediatype>
                  <trackindex>1</trackindex>
                  <clipindex>1</clipindex>
                  <groupindex>1</groupindex>
                  <linkclipref>ea984da9-d12b-4268-9b07-e98a56c7744e</linkclipref>
                </link>
              </clipitem>
              <clipitem id="clip3" premiereChannelType="mono">
                <name>00001.mp4</name>
                <duration>65954</duration>
                <in>0</in>
                <out>65954</out>
                <start>92690</start>
                <end>158644</end>
                <masterclipid>5458B63C-4592-4BF6-A314-85F1E51550AD</masterclipid>
                <file id="3687F7D7-9E4D-4070-8BB7-53E13539942A">
                  <name>00001.mp4</name>
                  <rate>
                    <ntsc>FALSE</ntsc>
                    <timebase>30</timebase>
                  </rate>
                  <duration>65954</duration>
                  <media>
                    <video>
                      <samplecharacteristics>
                        <width>1440</width>
                        <height>1080</height>
                        <anamorphic>TRUE</anamorphic>
                        <pixelaspectratio>HD-(960x720)</pixelaspectratio>
                      </samplecharacteristics>
                      <duration>65954</duration>
                    </video>
                    <audio>
                      <channelcount>1</channelcount>
                      <samplecharacteristics>
                        <depth>16</depth>
                        <samplerate>48000</samplerate>
                      </samplecharacteristics>
                      <layout>mono</layout>
                      <audiochannel>
                        <channellabel>discrete</channellabel>
                        <sourcechannel>1</sourcechannel>
                      </audiochannel>
                    </audio>
                  </media>
                  <pathurl>file://localhost/H:/motivated/media/counsellor/00001.mp4</pathurl>
                </file>
                <sourcetrack>
                  <mediatype>video</mediatype>
                  <trackindex>1</trackindex>
                </sourcetrack>
                <link>
                  <mediatype>video</mediatype>
                  <trackindex>1</trackindex>
                  <clipindex>2</clipindex>
                  <groupindex>1</groupindex>
                  <linkclipref>clip3</linkclipref>
                </link>
                <link>
                  <mediatype>audio</mediatype>
                  <trackindex>1</trackindex>
                  <clipindex>2</clipindex>
                  <groupindex>1</groupindex>
                  <linkclipref>d528c690-c586-4150-b0cc-634719e8b027</linkclipref>
                </link>
              </clipitem>
              <enabled>TRUE</enabled>
              <locked>FALSE</locked>
            </track>
            <track>
              <clipitem id="clip4" premiereChannelType="mono">
                <name>00000.mp4</name>
                <duration>53739</duration>
                <in>0</in>
                <out>53739</out>
                <start>581</start>
                <end>54320</end>
                <masterclipid>0CDC6AE6-1091-4638-985C-34B76127B736</masterclipid>
                <file id="F86CC6D2-5BA7-430B-99BB-AFCB38CD8EB1">
                  <name>00000.mp4</name>
                  <rate>
                    <ntsc>FALSE</ntsc>
                    <timebase>30</timebase>
                  </rate>
                  <duration>53739</duration>
                  <media>
                    <video>
                      <samplecharacteristics>
                        <width>1440</width>
                        <height>1080</height>
                        <anamorphic>TRUE</anamorphic>
                        <pixelaspectratio>HD-(960x720)</pixelaspectratio>
                      </samplecharacteristics>
                      <duration>53739</duration>
                    </video>
                    <audio>
                      <channelcount>1</channelcount>
                      <samplecharacteristics>
                        <depth>16</depth>
                        <samplerate>48000</samplerate>
                      </samplecharacteristics>
                      <layout>mono</layout>
                      <audiochannel>
                        <channellabel>discrete</channellabel>
                        <sourcechannel>1</sourcechannel>
                      </audiochannel>
                    </audio>
                  </media>
                  <pathurl>file://localhost/H:/motivated/media/patient/00000.mp4</pathurl>
                </file>
                <sourcetrack>
                  <mediatype>video</mediatype>
                  <trackindex>1</trackindex>
                </sourcetrack>
                <link>
                  <mediatype>video</mediatype>
                  <trackindex>2</trackindex>
                  <clipindex>1</clipindex>
                  <groupindex>1</groupindex>
                  <linkclipref>clip4</linkclipref>
                </link>
                <link>
                  <mediatype>audio</mediatype>
                  <trackindex>2</trackindex>
                  <clipindex>1</clipindex>
                  <groupindex>1</groupindex>
                  <linkclipref>4edeb703-9c85-4abd-b8cf-cf074d26d0b3</linkclipref>
                </link>
              </clipitem>
              <clipitem id="clip5" premiereChannelType="mono">
                <name>00001.mp4</name>
                <duration>53716</duration>
                <in>0</in>
                <out>53716</out>
                <start>54327</start>
                <end>108043</end>
                <masterclipid>37FB9CCF-536B-4A98-AF82-4A097E544E4E</masterclipid>
                <file id="E0229A40-1232-4726-8D6B-835741527CE2">
                  <name>00001.mp4</name>
                  <rate>
                    <ntsc>FALSE</ntsc>
                    <timebase>30</timebase>
                  </rate>
                  <duration>53716</duration>
                  <media>
                    <video>
                      <samplecharacteristics>
                        <width>1440</width>
                        <height>1080</height>
                        <anamorphic>TRUE</anamorphic>
                        <pixelaspectratio>HD-(960x720)</pixelaspectratio>
                      </samplecharacteristics>
                      <duration>53716</duration>
                    </video>
                    <audio>
                      <channelcount>1</channelcount>
                      <samplecharacteristics>
                        <depth>16</depth>
                        <samplerate>48000</samplerate>
                      </samplecharacteristics>
                      <layout>mono</layout>
                      <audiochannel>
                        <channellabel>discrete</channellabel>
                        <sourcechannel>1</sourcechannel>
                      </audiochannel>
                    </audio>
                  </media>
                  <pathurl>file://localhost/H:/motivated/media/patient/00001.mp4</pathurl>
                </file>
                <sourcetrack>
                  <mediatype>video</mediatype>
                  <trackindex>1</trackindex>
                </sourcetrack>
                <link>
                  <mediatype>video</mediatype>
                  <trackindex>2</trackindex>
                  <clipindex>2</clipindex>
                  <groupindex>1</groupindex>
                  <linkclipref>clip5</linkclipref>
                </link>
                <link>
                  <mediatype>audio</mediatype>
                  <trackindex>2</trackindex>
                  <clipindex>2</clipindex>
                  <groupindex>1</groupindex>
                  <linkclipref>077cc128-068d-4827-b6eb-b008ff1ad558</linkclipref>
                </link>
              </clipitem>
              <clipitem id="clip6" premiereChannelType="mono">
                <name>00002.mp4</name>
                <duration>50249</duration>
                <in>0</in>
                <out>50249</out>
                <start>108051</start>
                <end>158300</end>
                <masterclipid>3A485E89-FC8D-4438-B0CB-70DDA7D8CA3E</masterclipid>
                <file id="E3C89026-DF3E-4E4E-9F2D-0674667AE124">
                  <name>00002.mp4</name>
                  <rate>
                    <ntsc>FALSE</ntsc>
                    <timebase>30</timebase>
                  </rate>
                  <duration>50249</duration>
                  <media>
                    <video>
                      <samplecharacteristics>
                        <width>1440</width>
                        <height>1080</height>
                        <anamorphic>TRUE</anamorphic>
                        <pixelaspectratio>HD-(960x720)</pixelaspectratio>
                      </samplecharacteristics>
                      <duration>50249</duration>
                    </video>
                    <audio>
                      <channelcount>1</channelcount>
                      <samplecharacteristics>
                        <depth>16</depth>
                        <samplerate>48000</samplerate>
                      </samplecharacteristics>
                      <layout>mono</layout>
                      <audiochannel>
                        <channellabel>discrete</channellabel>
                        <sourcechannel>1</sourcechannel>
                      </audiochannel>
                    </audio>
                  </media>
                  <pathurl>file://localhost/H:/motivated/media/patient/00002.mp4</pathurl>
                </file>
                <sourcetrack>
                  <mediatype>video</mediatype>
                  <trackindex>1</trackindex>
                </sourcetrack>
                <link>
                  <mediatype>video</mediatype>
                  <trackindex>2</trackindex>
                  <clipindex>3</clipindex>
                  <groupindex>1</groupindex>
                  <linkclipref>clip6</linkclipref>
                </link>
                <link>
                  <mediatype>audio</mediatype>
                  <trackindex>2</trackindex>
                  <clipindex>3</clipindex>
                  <groupindex>1</groupindex>
                  <linkclipref>9d858d7a-87e5-4002-aa95-7e9b76cc71c7</linkclipref>
                </link>
              </clipitem>
              <enabled>TRUE</enabled>
              <locked>FALSE</locked>
            </track>
            <track>
              <clipitem id="clip8" premiereChannelType="mono">
                <name>00000.mp4</name>
                <duration>92613</duration>
                <in>0</in>
                <out>92613</out>
                <start>309</start>
                <end>92922</end>
                <masterclipid>F52B851A-E885-4270-99FD-B8CE248F6A49</masterclipid>
                <file id="2DD01D76-0323-414D-9277-83CFC3622C71">
                  <name>00000.mp4</name>
                  <rate>
                    <ntsc>FALSE</ntsc>
                    <timebase>30</timebase>
                  </rate>
                  <duration>92613</duration>
                  <media>
                    <video>
                      <samplecharacteristics>
                        <width>1440</width>
                        <height>1080</height>
                        <anamorphic>TRUE</anamorphic>
                        <pixelaspectratio>HD-(960x720)</pixelaspectratio>
                      </samplecharacteristics>
                      <duration>92613</duration>
                    </video>
                    <audio>
                      <channelcount>1</channelcount>
                      <samplecharacteristics>
                        <depth>16</depth>
                        <samplerate>48000</samplerate>
                      </samplecharacteristics>
                      <layout>mono</layout>
                      <audiochannel>
                        <channellabel>discrete</channellabel>
                        <sourcechannel>1</sourcechannel>
                      </audiochannel>
                    </audio>
                  </media>
                  <pathurl>file://localhost/H:/motivated/media/overview/00000.mp4</pathurl>
                </file>
                <sourcetrack>
                  <mediatype>video</mediatype>
                  <trackindex>1</trackindex>
                </sourcetrack>
                <link>
                  <mediatype>video</mediatype>
                  <trackindex>3</trackindex>
                  <clipindex>1</clipindex>
                  <groupindex>1</groupindex>
                  <linkclipref>clip8</linkclipref>
                </link>
                <link>
                  <mediatype>audio</mediatype>
                  <trackindex>3</trackindex>
                  <clipindex>1</clipindex>
                  <groupindex>1</groupindex>
                  <linkclipref>8aa8d716-cb46-4a22-95fc-7dd0774ce70b</linkclipref>
                </link>
              </clipitem>
              <clipitem id="clip9" premiereChannelType="mono">
                <name>00001.mp4</name>
                <duration>65655</duration>
                <in>0</in>
                <out>65655</out>
                <start>92928</start>
                <end>158583</end>
                <masterclipid>E64FCD8E-6DD9-44A7-B4EF-10EB3E07B30D</masterclipid>
                <file id="8C68F26D-8B07-4B0A-8B88-FB65D352ADE1">
                  <name>00001.mp4</name>
                  <rate>
                    <ntsc>FALSE</ntsc>
                    <timebase>30</timebase>
                  </rate>
                  <duration>65655</duration>
                  <media>
                    <video>
                      <samplecharacteristics>
                        <width>1440</width>
                        <height>1080</height>
                        <anamorphic>TRUE</anamorphic>
                        <pixelaspectratio>HD-(960x720)</pixelaspectratio>
                      </samplecharacteristics>
                      <duration>65655</duration>
                    </video>
                    <audio>
                      <channelcount>1</channelcount>
                      <samplecharacteristics>
                        <depth>16</depth>
                        <samplerate>48000</samplerate>
                      </samplecharacteristics>
                      <layout>mono</layout>
                      <audiochannel>
                        <channellabel>discrete</channellabel>
                        <sourcechannel>1</sourcechannel>
                      </audiochannel>
                    </audio>
                  </media>
                  <pathurl>file://localhost/H:/motivated/media/overview/00001.mp4</pathurl>
                </file>
                <sourcetrack>
                  <mediatype>video</mediatype>
                  <trackindex>1</trackindex>
                </sourcetrack>
                <link>
                  <mediatype>video</mediatype>
                  <trackindex>3</trackindex>
                  <clipindex>2</clipindex>
                  <groupindex>1</groupindex>
                  <linkclipref>clip9</linkclipref>
                </link>
                <link>
                  <mediatype>audio</mediatype>
                  <trackindex>3</trackindex>
                  <clipindex>2</clipindex>
                  <groupindex>1</groupindex>
                  <linkclipref>bd1aa4a7-470b-4ca3-8e1c-026e84c903ed</linkclipref>
                </link>
              </clipitem>
              <enabled>TRUE</enabled>
              <locked>FALSE</locked>
            </track>
            <format>
              <samplecharacteristics>
                <width>1440</width>
                <height>1080</height>
                <anamorphic>TRUE</anamorphic>
                <pixelaspectratio>HD-(960x720)</pixelaspectratio>
                <rate>
                  <ntsc>FALSE</ntsc>
                  <timebase>30</timebase>
                </rate>
              </samplecharacteristics>
            </format>
          </video>
          <audio>
            <track>
              <clipitem id="ea984da9-d12b-4268-9b07-e98a56c7744e" premiereChannelType="mono">
                <name>00000.mp4</name>
                <duration>92507</duration>
                <in>0</in>
                <out>92507</out>
                <start>174</start>
                <end>92681</end>
                <masterclipid>AAE07D41-DCA9-48DA-9952-0D28EF85C7CE</masterclipid>
                <file id="43EC00D2-2925-4E29-ABE2-1122BC2BFBEE">
                  <name>00000.mp4</name>
                  <rate>
                    <ntsc>FALSE</ntsc>
                    <timebase>30</timebase>
                  </rate>
                  <duration>92507</duration>
                  <media>
                    <video>
                      <samplecharacteristics>
                        <width>1440</width>
                        <height>1080</height>
                        <anamorphic>TRUE</anamorphic>
                        <pixelaspectratio>HD-(960x720)</pixelaspectratio>
                      </samplecharacteristics>
                      <duration>92507</duration>
                    </video>
                    <audio>
                      <channelcount>1</channelcount>
                      <samplecharacteristics>
                        <depth>16</depth>
                        <samplerate>48000</samplerate>
                      </samplecharacteristics>
                      <layout>mono</layout>
                      <audiochannel>
                        <channellabel>discrete</channellabel>
                        <sourcechannel>1</sourcechannel>
                      </audiochannel>
                    </audio>
                  </media>
                  <pathurl>file://localhost/H:/motivated/media/counsellor/00000.mp4</pathurl>
                </file>
                <sourcetrack>
                  <mediatype>audio</mediatype>
                  <trackindex>1</trackindex>
                </sourcetrack>
                <link>
                  <mediatype>video</mediatype>
                  <trackindex>1</trackindex>
                  <clipindex>1</clipindex>
                  <groupindex>1</groupindex>
                  <linkclipref>clip2</linkclipref>
                </link>
                <link>
                  <mediatype>audio</mediatype>
                  <trackindex>1</trackindex>
                  <clipindex>1</clipindex>
                  <groupindex>1</groupindex>
                  <linkclipref>ea984da9-d12b-4268-9b07-e98a56c7744e</linkclipref>
                </link>
              </clipitem>
              <clipitem id="d528c690-c586-4150-b0cc-634719e8b027" premiereChannelType="mono">
                <name>00001.mp4</name>
                <duration>65954</duration>
                <in>0</in>
                <out>65954</out>
                <start>92690</start>
                <end>158644</end>
                <masterclipid>5458B63C-4592-4BF6-A314-85F1E51550AD</masterclipid>
                <file id="3687F7D7-9E4D-4070-8BB7-53E13539942A">
                  <name>00001.mp4</name>
                  <rate>
                    <ntsc>FALSE</ntsc>
                    <timebase>30</timebase>
                  </rate>
                  <duration>65954</duration>
                  <media>
                    <video>
                      <samplecharacteristics>
                        <width>1440</width>
                        <height>1080</height>
                        <anamorphic>TRUE</anamorphic>
                        <pixelaspectratio>HD-(960x720)</pixelaspectratio>
                      </samplecharacteristics>
                      <duration>65954</duration>
                    </video>
                    <audio>
                      <channelcount>1</channelcount>
                      <samplecharacteristics>
                        <depth>16</depth>
                        <samplerate>48000</samplerate>
                      </samplecharacteristics>
                      <layout>mono</layout>
                      <audiochannel>
                        <channellabel>discrete</channellabel>
                        <sourcechannel>1</sourcechannel>
                      </audiochannel>
                    </audio>
                  </media>
                  <pathurl>file://localhost/H:/motivated/media/counsellor/00001.mp4</pathurl>
                </file>
                <sourcetrack>
                  <mediatype>audio</mediatype>
                  <trackindex>1</trackindex>
                </sourcetrack>
                <link>
                  <mediatype>video</mediatype>
                  <trackindex>1</trackindex>
                  <clipindex>2</clipindex>
                  <groupindex>1</groupindex>
                  <linkclipref>clip3</linkclipref>
                </link>
                <link>
                  <mediatype>audio</mediatype>
                  <trackindex>1</trackindex>
                  <clipindex>2</clipindex>
                  <groupindex>1</groupindex>
                  <linkclipref>d528c690-c586-4150-b0cc-634719e8b027</linkclipref>
                </link>
              </clipitem>
              <enabled>TRUE</enabled>
              <locked>FALSE</locked>
            </track>
            <track>
              <clipitem id="4edeb703-9c85-4abd-b8cf-cf074d26d0b3" premiereChannelType="mono">
                <name>00000.mp4</name>
                <duration>53739</duration>
                <in>0</in>
                <out>53739</out>
                <start>581</start>
                <end>54320</end>
                <masterclipid>0CDC6AE6-1091-4638-985C-34B76127B736</masterclipid>
                <file id="F86CC6D2-5BA7-430B-99BB-AFCB38CD8EB1">
                  <name>00000.mp4</name>
                  <rate>
                    <ntsc>FALSE</ntsc>
                    <timebase>30</timebase>
                  </rate>
                  <duration>53739</duration>
                  <media>
                    <video>
                      <samplecharacteristics>
                        <width>1440</width>
                        <height>1080</height>
                        <anamorphic>TRUE</anamorphic>
                        <pixelaspectratio>HD-(960x720)</pixelaspectratio>
                      </samplecharacteristics>
                      <duration>53739</duration>
                    </video>
                    <audio>
                      <channelcount>1</channelcount>
                      <samplecharacteristics>
                        <depth>16</depth>
                        <samplerate>48000</samplerate>
                      </samplecharacteristics>
                      <layout>mono</layout>
                      <audiochannel>
                        <channellabel>discrete</channellabel>
                        <sourcechannel>1</sourcechannel>
                      </audiochannel>
                    </audio>
                  </media>
                  <pathurl>file://localhost/H:/motivated/media/patient/00000.mp4</pathurl>
                </file>
                <sourcetrack>
                  <mediatype>audio</mediatype>
                  <trackindex>1</trackindex>
                </sourcetrack>
                <link>
                  <mediatype>video</mediatype>
                  <trackindex>2</trackindex>
                  <clipindex>1</clipindex>
                  <groupindex>1</groupindex>
                  <linkclipref>clip4</linkclipref>
                </link>
                <link>
                  <mediatype>audio</mediatype>
                  <trackindex>2</trackindex>
                  <clipindex>1</clipindex>
                  <groupindex>1</groupindex>
                  <linkclipref>4edeb703-9c85-4abd-b8cf-cf074d26d0b3</linkclipref>
                </link>
              </clipitem>
              <clipitem id="077cc128-068d-4827-b6eb-b008ff1ad558" premiereChannelType="mono">
                <name>00001.mp4</name>
                <duration>53716</duration>
                <in>0</in>
                <out>53716</out>
                <start>54327</start>
                <end>108043</end>
                <masterclipid>37FB9CCF-536B-4A98-AF82-4A097E544E4E</masterclipid>
                <file id="E0229A40-1232-4726-8D6B-835741527CE2">
                  <name>00001.mp4</name>
                  <rate>
                    <ntsc>FALSE</ntsc>
                    <timebase>30</timebase>
                  </rate>
                  <duration>53716</duration>
                  <media>
                    <video>
                      <samplecharacteristics>
                        <width>1440</width>
                        <height>1080</height>
                        <anamorphic>TRUE</anamorphic>
                        <pixelaspectratio>HD-(960x720)</pixelaspectratio>
                      </samplecharacteristics>
                      <duration>53716</duration>
                    </video>
                    <audio>
                      <channelcount>1</channelcount>
                      <samplecharacteristics>
                        <depth>16</depth>
                        <samplerate>48000</samplerate>
                      </samplecharacteristics>
                      <layout>mono</layout>
                      <audiochannel>
                        <channellabel>discrete</channellabel>
                        <sourcechannel>1</sourcechannel>
                      </audiochannel>
                    </audio>
                  </media>
                  <pathurl>file://localhost/H:/motivated/media/patient/00001.mp4</pathurl>
                </file>
                <sourcetrack>
                  <mediatype>audio</mediatype>
                  <trackindex>1</trackindex>
                </sourcetrack>
                <link>
                  <mediatype>video</mediatype>
                  <trackindex>2</trackindex>
                  <clipindex>2</clipindex>
                  <groupindex>1</groupindex>
                  <linkclipref>clip5</linkclipref>
                </link>
                <link>
                  <mediatype>audio</mediatype>
                  <trackindex>2</trackindex>
                  <clipindex>2</clipindex>
                  <groupindex>1</groupindex>
                  <linkclipref>077cc128-068d-4827-b6eb-b008ff1ad558</linkclipref>
                </link>
              </clipitem>
              <clipitem id="9d858d7a-87e5-4002-aa95-7e9b76cc71c7" premiereChannelType="mono">
                <name>00002.mp4</name>
                <duration>50249</duration>
                <in>0</in>
                <out>50249</out>
                <start>108051</start>
                <end>158300</end>
                <masterclipid>3A485E89-FC8D-4438-B0CB-70DDA7D8CA3E</masterclipid>
                <file id="E3C89026-DF3E-4E4E-9F2D-0674667AE124">
                  <name>00002.mp4</name>
                  <rate>
                    <ntsc>FALSE</ntsc>
                    <timebase>30</timebase>
                  </rate>
                  <duration>50249</duration>
                  <media>
                    <video>
                      <samplecharacteristics>
                        <width>1440</width>
                        <height>1080</height>
                        <anamorphic>TRUE</anamorphic>
                        <pixelaspectratio>HD-(960x720)</pixelaspectratio>
                      </samplecharacteristics>
                      <duration>50249</duration>
                    </video>
                    <audio>
                      <channelcount>1</channelcount>
                      <samplecharacteristics>
                        <depth>16</depth>
                        <samplerate>48000</samplerate>
                      </samplecharacteristics>
                      <layout>mono</layout>
                      <audiochannel>
                        <channellabel>discrete</channellabel>
                        <sourcechannel>1</sourcechannel>
                      </audiochannel>
                    </audio>
                  </media>
                  <pathurl>file://localhost/H:/motivated/media/patient/00002.mp4</pathurl>
                </file>
                <sourcetrack>
                  <mediatype>audio</mediatype>
                  <trackindex>1</trackindex>
                </sourcetrack>
                <link>
                  <mediatype>video</mediatype>
                  <trackindex>2</trackindex>
                  <clipindex>3</clipindex>
                  <groupindex>1</groupindex>
                  <linkclipref>clip6</linkclipref>
                </link>
                <link>
                  <mediatype>audio</mediatype>
                  <trackindex>2</trackindex>
                  <clipindex>3</clipindex>
                  <groupindex>1</groupindex>
                  <linkclipref>9d858d7a-87e5-4002-aa95-7e9b76cc71c7</linkclipref>
                </link>
              </clipitem>
              <enabled>TRUE</enabled>
              <locked>FALSE</locked>
            </track>
            <track>
              <clipitem id="8aa8d716-cb46-4a22-95fc-7dd0774ce70b" premiereChannelType="mono">
                <name>00000.mp4</name>
                <duration>92613</duration>
                <in>0</in>
                <out>92613</out>
                <start>309</start>
                <end>92922</end>
                <masterclipid>F52B851A-E885-4270-99FD-B8CE248F6A49</masterclipid>
                <file id="2DD01D76-0323-414D-9277-83CFC3622C71">
                  <name>00000.mp4</name>
                  <rate>
                    <ntsc>FALSE</ntsc>
                    <timebase>30</timebase>
                  </rate>
                  <duration>92613</duration>
                  <media>
                    <video>
                      <samplecharacteristics>
                        <width>1440</width>
                        <height>1080</height>
                        <anamorphic>TRUE</anamorphic>
                        <pixelaspectratio>HD-(960x720)</pixelaspectratio>
                      </samplecharacteristics>
                      <duration>92613</duration>
                    </video>
                    <audio>
                      <channelcount>1</channelcount>
                      <samplecharacteristics>
                        <depth>16</depth>
                        <samplerate>48000</samplerate>
                      </samplecharacteristics>
                      <layout>mono</layout>
                      <audiochannel>
                        <channellabel>discrete</channellabel>
                        <sourcechannel>1</sourcechannel>
                      </audiochannel>
                    </audio>
                  </media>
                  <pathurl>file://localhost/H:/motivated/media/overview/00000.mp4</pathurl>
                </file>
                <sourcetrack>
                  <mediatype>audio</mediatype>
                  <trackindex>1</trackindex>
                </sourcetrack>
                <link>
                  <mediatype>video</mediatype>
                  <trackindex>3</trackindex>
                  <clipindex>1</clipindex>
                  <groupindex>1</groupindex>
                  <linkclipref>clip8</linkclipref>
                </link>
                <link>
                  <mediatype>audio</mediatype>
                  <trackindex>3</trackindex>
                  <clipindex>1</clipindex>
                  <groupindex>1</groupindex>
                  <linkclipref>8aa8d716-cb46-4a22-95fc-7dd0774ce70b</linkclipref>
                </link>
              </clipitem>
              <clipitem id="bd1aa4a7-470b-4ca3-8e1c-026e84c903ed" premiereChannelType="mono">
                <name>00001.mp4</name>
                <duration>65655</duration>
                <in>0</in>
                <out>65655</out>
                <start>92928</start>
                <end>158583</end>
                <masterclipid>E64FCD8E-6DD9-44A7-B4EF-10EB3E07B30D</masterclipid>
                <file id="8C68F26D-8B07-4B0A-8B88-FB65D352ADE1">
                  <name>00001.mp4</name>
                  <rate>
                    <ntsc>FALSE</ntsc>
                    <timebase>30</timebase>
                  </rate>
                  <duration>65655</duration>
                  <media>
                    <video>
                      <samplecharacteristics>
                        <width>1440</width>
                        <height>1080</height>
                        <anamorphic>TRUE</anamorphic>
                        <pixelaspectratio>HD-(960x720)</pixelaspectratio>
                      </samplecharacteristics>
                      <duration>65655</duration>
                    </video>
                    <audio>
                      <channelcount>1</channelcount>
                      <samplecharacteristics>
                        <depth>16</depth>
                        <samplerate>48000</samplerate>
                      </samplecharacteristics>
                      <layout>mono</layout>
                      <audiochannel>
                        <channellabel>discrete</channellabel>
                        <sourcechannel>1</sourcechannel>
                      </audiochannel>
                    </audio>
                  </media>
                  <pathurl>file://localhost/H:/motivated/media/overview/00001.mp4</pathurl>
                </file>
                <sourcetrack>
                  <mediatype>audio</mediatype>
                  <trackindex>1</trackindex>
                </sourcetrack>
                <link>
                  <mediatype>video</mediatype>
                  <trackindex>3</trackindex>
                  <clipindex>2</clipindex>
                  <groupindex>1</groupindex>
                  <linkclipref>clip9</linkclipref>
                </link>
                <link>
                  <mediatype>audio</mediatype>
                  <trackindex>3</trackindex>
                  <clipindex>2</clipindex>
                  <groupindex>1</groupindex>
                  <linkclipref>bd1aa4a7-470b-4ca3-8e1c-026e84c903ed</linkclipref>
                </link>
              </clipitem>
              <enabled>TRUE</enabled>
              <locked>FALSE</locked>
            </track>
            <track>
              <clipitem id="clip1" premiereChannelType="mono">
                <name>mixed.wav</name>
                <duration>157626</duration>
                <in>0</in>
                <out>157626</out>
                <start>0</start>
                <end>157626</end>
                <masterclipid>7729F628-AA9A-40DD-9FF6-FD7A76839071</masterclipid>
                <file id="87259784-C221-4EAD-AC01-FF24FF0EEB43">
                  <name>mixed.wav</name>
                  <rate>
                    <ntsc>FALSE</ntsc>
                    <timebase>30</timebase>
                  </rate>
                  <duration>157626</duration>
                  <media>
                    <audio>
                      <channelcount>1</channelcount>
                      <samplecharacteristics>
                        <depth>16</depth>
                        <samplerate>44100</samplerate>
                      </samplecharacteristics>
                      <layout>mono</layout>
                      <audiochannel>
                        <channellabel>discrete</channellabel>
                        <sourcechannel>1</sourcechannel>
                      </audiochannel>
                    </audio>
                  </media>
                  <pathurl>file://localhost/H:/motivated/media/mixed.wav</pathurl>
                </file>
                <sourcetrack>
                  <mediatype>audio</mediatype>
                  <trackindex>1</trackindex>
                </sourcetrack>
              </clipitem>
              <enabled>TRUE</enabled>
              <locked>FALSE</locked>
            </track>
            <track>
              <clipitem id="clip10" premiereChannelType="mono">
                <name>counsellor.wav</name>
                <duration>157626</duration>
                <in>0</in>
                <out>157626</out>
                <start>0</start>
                <end>157626</end>
                <masterclipid>E1720DF2-D817-4B31-B4EB-85C95B7EB43C</masterclipid>
                <file id="BE99E36F-00B6-4364-83D6-5F86BFD4A54D">
                  <name>counsellor.wav</name>
                  <rate>
                    <ntsc>FALSE</ntsc>
                    <timebase>30</timebase>
                  </rate>
                  <duration>157626</duration>
                  <media>
                    <audio>
                      <channelcount>1</channelcount>
                      <samplecharacteristics>
                        <depth>16</depth>
                        <samplerate>44100</samplerate>
                      </samplecharacteristics>
                      <layout>mono</layout>
                      <audiochannel>
                        <channellabel>discrete</channellabel>
                        <sourcechannel>1</sourcechannel>
                      </audiochannel>
                    </audio>
                  </media>
                  <pathurl>file://localhost/H:/motivated/media/counsellor.wav</pathurl>
                </file>
                <sourcetrack>
                  <mediatype>audio</mediatype>
                  <trackindex>1</trackindex>
                </sourcetrack>
              </clipitem>
              <enabled>TRUE</enabled>
              <locked>FALSE</locked>
            </track>
            <track>
              <clipitem id="clip11" premiereChannelType="mono">
                <name>patient.wav</name>
                <duration>157626</duration>
                <in>0</in>
                <out>157626</out>
                <start>0</start>
                <end>157626</end>
                <masterclipid>1E6517A4-32A2-4344-8834-45C4367A1520</masterclipid>
                <file id="BAFFA325-952A-4D3B-B75D-52CD62C591DC">
                  <name>patient.wav</name>
                  <rate>
                    <ntsc>FALSE</ntsc>
                    <timebase>30</timebase>
                  </rate>
                  <duration>157626</duration>
                  <media>
                    <audio>
                      <channelcount>1</channelcount>
                      <samplecharacteristics>
                        <depth>16</depth>
                        <samplerate>44100</samplerate>
                      </samplecharacteristics>
                      <layout>mono</layout>
                      <audiochannel>
                        <channellabel>discrete</channellabel>
                        <sourcechannel>1</sourcechannel>
                      </audiochannel>
                    </audio>
                  </media>
                  <pathurl>file://localhost/H:/motivated/media/patient.wav</pathurl>
                </file>
                <sourcetrack>
                  <mediatype>audio</mediatype>
                  <trackindex>1</trackindex>
                </sourcetrack>
              </clipitem>
              <enabled>TRUE</enabled>
              <locked>FALSE</locked>
            </track>
          </audio>
        </media>
        <uuid>105198bf-2d30-408a-9f3d-0ec96388d6af</uuid>
      </sequence>
    </children>
  </project>

  <importoptions>
    <createnewproject>FALSE</createnewproject>
    <targetprojectname>Synced Project</targetprojectname>
    <defsequencepresetname>useFirstClipSettings</defsequencepresetname>
    <displaynonfatalerrors>TRUE</displaynonfatalerrors>
    <filterreconnectmediafiles>TRUE</filterreconnectmediafiles>
    <filterincludemarkers>TRUE</filterincludemarkers>
    <filterincludeeffects>TRUE</filterincludeeffects>
    <filterincludesequencesettings>FALSE</filterincludesequencesettings>
  </importoptions>

</xmeml>
